# This file uses centimeters as units for non-parametric coordinates.

mtllib ABlock002.mtl
g default
v 47.552857 -24.240130 -15.450859
v 40.450877 -24.240130 -29.389280
v 29.389280 -24.240130 -40.450874
v 15.450856 -24.240130 -47.552851
v 0.000000 -24.240130 -50.000024
v -15.450856 -24.240130 -47.552848
v -29.389274 -24.240130 -40.450865
v -40.450862 -24.240130 -29.389271
v -47.552836 -24.240130 -15.450853
v -50.000012 -24.240130 0.000000
v -47.552836 -24.240130 15.450853
v -40.450859 -24.240130 29.389268
v -29.389268 -24.240130 40.450850
v -15.450853 -24.240130 47.552833
v -0.000001 -24.240130 50.000006
v 15.450849 -24.240130 47.552830
v 29.389262 -24.240130 40.450850
v 40.450850 -24.240130 29.389265
v 47.552824 -24.240130 15.450850
v 50.000000 -24.240130 0.000000
v 35.678977 33.871847 -11.592825
v 30.350357 33.871847 -22.050840
v 22.050826 33.871847 -30.350369
v 11.592808 33.871847 -35.678989
v -0.000007 33.871847 -37.515152
v -11.592819 33.871847 -35.678989
v -22.050831 33.871847 -30.350369
v -30.350363 33.871847 -22.050837
v -35.678977 33.871847 -11.592817
v -37.515140 33.871847 -0.000011
v -35.678977 33.871847 11.592802
v -30.350363 33.871847 22.050816
v -22.050831 33.871847 30.350333
v -11.592814 33.871847 35.678950
v -0.000009 33.871847 37.515113
v 11.592808 33.871847 35.678950
v 22.050805 33.871847 30.350333
v 30.350339 33.871847 22.050810
v 35.678950 33.871847 11.592802
v 37.515113 33.871847 -0.000011
v 17.839482 33.871847 -5.796418
v 15.175173 33.871847 -11.025427
v 11.025409 33.871847 -15.175194
v 5.796397 33.871847 -17.839500
v -0.000007 33.871847 -18.757582
v -5.796412 33.871847 -17.839500
v -11.025420 33.871847 -15.175194
v -15.175188 33.871847 -11.025427
v -17.839494 33.871847 -5.796415
v -18.757570 33.871847 -0.000011
v -17.839494 33.871847 5.796392
v -15.175188 33.871847 11.025402
v -11.025420 33.871847 15.175161
v -5.796411 33.871847 17.839473
v -0.000008 33.871847 18.757549
v 5.796397 33.871847 17.839469
v 11.025402 33.871847 15.175161
v 15.175162 33.871847 11.025402
v 17.839473 33.871847 5.796392
v 18.757550 33.871847 -0.000011
v 0.000000 -24.240130 0.000000
v -0.000007 33.871847 -0.000011
v -74.348027 -5.331832 -0.000005
v -70.709157 -5.331832 -22.974804
v -60.148817 -5.331832 -43.700674
v -43.700671 -5.331832 -60.148817
v -22.974807 -5.331832 -70.709181
v -0.000003 -5.331832 -74.348044
v 22.974804 -5.331832 -70.709181
v 43.700680 -5.331832 -60.148829
v 60.148829 -5.331832 -43.700686
v 70.709187 -5.331832 -22.974814
v 74.347997 -5.331832 -0.000005
v 70.709133 -5.331832 22.974794
v 60.148793 -5.331832 43.700653
v 43.700653 -5.331832 60.148793
v 22.974794 -5.331832 70.709145
v -0.000005 -5.331832 74.347997
v -22.974800 -5.331832 70.709145
v -43.700668 -5.331832 60.148793
v -60.148811 -5.331832 43.700659
v -70.709157 -5.331832 22.974794
v 50.001842 16.596937 -0.000009
v 47.554547 16.596937 15.451412
v 40.452319 16.596937 29.390329
v 29.390326 16.596937 40.452316
v 15.451416 16.596937 47.554547
v -0.000007 16.596937 50.001842
v -15.451425 16.596937 47.554547
v -29.390347 16.596937 40.452316
v -40.452343 16.596937 29.390335
v -47.554567 16.596937 15.451413
v -50.001860 16.596937 -0.000009
v -47.554567 16.596937 -15.451427
v -40.452346 16.596937 -29.390356
v -29.390350 16.596937 -40.452349
v -15.451428 16.596937 -47.554579
v -0.000006 16.596937 -50.001878
v 15.451419 16.596937 -47.554579
v 29.390350 16.596937 -40.452349
v 40.452346 16.596937 -29.390356
v 47.554579 16.596937 -15.451436
v 92.217261 -24.240130 -29.963207
v 93.123138 -23.556525 -30.257541
v 92.790848 -22.446007 -30.149573
v 78.444695 -24.240130 -56.993401
v 79.215276 -23.556525 -57.553262
v 78.932607 -22.446007 -57.347894
v 56.993401 -24.240130 -78.444684
v 57.553262 -23.556525 -79.215270
v 57.347894 -22.446007 -78.932607
v 29.963201 -24.240130 -92.217261
v 30.257538 -23.556525 -93.123120
v 30.149567 -22.446007 -92.790830
v 0.000000 -24.240130 -96.962941
v 0.000000 -23.556525 -97.915441
v -0.000000 -22.446007 -97.566044
v -29.963201 -24.240130 -92.217255
v -30.257538 -23.556525 -93.123120
v -30.149567 -22.446007 -92.790830
v -56.993389 -24.240130 -78.444672
v -57.553250 -23.556525 -79.215252
v -57.347882 -22.446007 -78.932595
v -78.444654 -24.240130 -56.993383
v -79.215246 -23.556525 -57.553244
v -78.932583 -22.446007 -57.347876
v -92.217231 -24.240130 -29.963192
v -93.123090 -23.556525 -30.257529
v -92.790806 -22.446007 -30.149561
v -96.962929 -24.240130 0.000000
v -97.915417 -23.556525 -0.000000
v -97.566032 -22.446007 -0.000000
v -92.217231 -24.240130 29.963192
v -93.123090 -23.556525 30.257529
v -92.790806 -22.446007 30.149561
v -78.444654 -24.240130 56.993383
v -79.215240 -23.556525 57.553238
v -78.932577 -22.446007 57.347870
v -56.993383 -24.240130 78.444648
v -57.553238 -23.556525 79.215223
v -57.347870 -22.446007 78.932554
v -29.963192 -24.240130 92.217225
v -30.257529 -23.556525 93.123090
v -30.149561 -22.446007 92.790800
v -0.000003 -24.240130 96.962911
v -0.000003 -23.556525 97.915411
v -0.000003 -22.446007 97.566015
v 29.963183 -24.240130 92.217213
v 30.257520 -23.556525 93.123084
v 30.149549 -22.446007 92.790794
v 56.993371 -24.240130 78.444642
v 57.553232 -23.556525 79.215223
v 57.347864 -22.446007 78.932554
v 78.444642 -24.240130 56.993371
v 79.215223 -23.556525 57.553232
v 78.932554 -22.446007 57.347864
v 92.217207 -24.240130 29.963186
v 93.123066 -23.556525 30.257523
v 92.790776 -22.446007 30.149555
v 96.962905 -24.240130 -0.000003
v 97.915387 -23.556525 -0.000001
v 97.566009 -22.446007 -0.000000
vt 0.375000 0.688440
vt 0.387500 0.688440
vt 0.400000 0.688440
vt 0.412500 0.688440
vt 0.425000 0.688440
vt 0.437500 0.688440
vt 0.450000 0.688440
vt 0.462500 0.688440
vt 0.475000 0.688440
vt 0.487500 0.688440
vt 0.500000 0.688440
vt 0.512500 0.688440
vt 0.525000 0.688440
vt 0.537500 0.688440
vt 0.550000 0.688440
vt 0.562500 0.688440
vt 0.575000 0.688440
vt 0.587500 0.688440
vt 0.600000 0.688440
vt 0.612500 0.688440
vt 0.625000 0.688440
vt 0.648603 0.795466
vt 0.626409 0.751908
vt 0.591842 0.717341
vt 0.548284 0.695147
vt 0.500000 0.687500
vt 0.451716 0.695147
vt 0.408159 0.717341
vt 0.373591 0.751909
vt 0.351397 0.795466
vt 0.343750 0.843750
vt 0.351397 0.892034
vt 0.373591 0.935591
vt 0.408159 0.970159
vt 0.451716 0.992353
vt 0.500000 1.000000
vt 0.548284 0.992353
vt 0.591841 0.970159
vt 0.626409 0.935591
vt 0.648603 0.892034
vt 0.656250 0.843750
vt 0.574301 0.819608
vt 0.563205 0.797829
vt 0.545921 0.780545
vt 0.524142 0.769449
vt 0.500000 0.765625
vt 0.475858 0.769449
vt 0.454079 0.780546
vt 0.436796 0.797829
vt 0.425699 0.819608
vt 0.421875 0.843750
vt 0.425699 0.867892
vt 0.436796 0.889671
vt 0.454079 0.906954
vt 0.475858 0.918051
vt 0.500000 0.921875
vt 0.524142 0.918051
vt 0.545921 0.906954
vt 0.563204 0.889671
vt 0.574301 0.867892
vt 0.578125 0.843750
vt 0.500000 0.150000
vt 0.500000 0.837500
vt 0.625000 0.434822
vt 0.612500 0.576684
vt 0.600000 0.576684
vt 0.587500 0.576684
vt 0.575000 0.576684
vt 0.562500 0.576684
vt 0.550000 0.576684
vt 0.537500 0.576684
vt 0.525000 0.576684
vt 0.512500 0.576684
vt 0.500000 0.576684
vt 0.487500 0.576684
vt 0.475000 0.576684
vt 0.462500 0.576684
vt 0.450000 0.576684
vt 0.437500 0.576684
vt 0.425000 0.576684
vt 0.412500 0.576684
vt 0.400000 0.576684
vt 0.387500 0.576684
vt 0.625000 0.576684
vt 0.375000 0.576684
vt 0.563205 0.110329
vt 0.644089 0.109432
vt 0.545921 0.093046
vt 0.622570 0.067198
vt 0.524142 0.081949
vt 0.589052 0.033680
vt 0.500000 0.078125
vt 0.546817 0.012161
vt 0.475858 0.081949
vt 0.500000 0.004745
vt 0.454079 0.093046
vt 0.453182 0.012161
vt 0.436796 0.110329
vt 0.410948 0.033680
vt 0.425699 0.132108
vt 0.377430 0.067198
vt 0.421875 0.156250
vt 0.355911 0.109433
vt 0.425699 0.180392
vt 0.348495 0.156250
vt 0.436796 0.202171
vt 0.355911 0.203067
vt 0.454079 0.219454
vt 0.377430 0.245302
vt 0.475858 0.230551
vt 0.410948 0.278820
vt 0.500000 0.234375
vt 0.453183 0.300339
vt 0.524142 0.230551
vt 0.500000 0.307755
vt 0.545921 0.219454
vt 0.546817 0.300339
vt 0.563204 0.202171
vt 0.589052 0.278820
vt 0.574301 0.180392
vt 0.622570 0.245302
vt 0.578125 0.156250
vt 0.644089 0.203067
vt 0.574301 0.132108
vt 0.651505 0.156250
vt 0.387500 0.324107
vt 0.375000 0.434822
vt 0.400000 0.324107
vt 0.387500 0.434822
vt 0.412500 0.324107
vt 0.400000 0.434822
vt 0.425000 0.324107
vt 0.412500 0.434822
vt 0.437500 0.324107
vt 0.425000 0.434822
vt 0.450000 0.324107
vt 0.437500 0.434822
vt 0.462500 0.324107
vt 0.450000 0.434822
vt 0.475000 0.324107
vt 0.462500 0.434822
vt 0.487500 0.324107
vt 0.475000 0.434822
vt 0.500000 0.324107
vt 0.487500 0.434822
vt 0.512500 0.324107
vt 0.500000 0.434822
vt 0.525000 0.324107
vt 0.512500 0.434822
vt 0.537500 0.324107
vt 0.525000 0.434822
vt 0.550000 0.324107
vt 0.537500 0.434822
vt 0.562500 0.324107
vt 0.550000 0.434822
vt 0.575000 0.324107
vt 0.562500 0.434822
vt 0.587500 0.324107
vt 0.575000 0.434822
vt 0.600000 0.324107
vt 0.587500 0.434822
vt 0.612500 0.324107
vt 0.600000 0.434822
vt 0.625000 0.324107
vt 0.612500 0.434822
vt 0.375000 0.324107
vt 0.648603 0.107966
vt 0.375000 0.312500
vt 0.625000 0.312500
vt 0.626409 0.064408
vt 0.387500 0.312500
vt 0.591842 0.029841
vt 0.400000 0.312500
vt 0.548284 0.007647
vt 0.412500 0.312500
vt 0.500000 -0.000000
vt 0.425000 0.312500
vt 0.451716 0.007647
vt 0.437500 0.312500
vt 0.408159 0.029841
vt 0.450000 0.312500
vt 0.373591 0.064409
vt 0.462500 0.312500
vt 0.351397 0.107966
vt 0.475000 0.312500
vt 0.343750 0.156250
vt 0.487500 0.312500
vt 0.351397 0.204534
vt 0.500000 0.312500
vt 0.373591 0.248091
vt 0.512500 0.312500
vt 0.408159 0.282659
vt 0.525000 0.312500
vt 0.451716 0.304853
vt 0.537500 0.312500
vt 0.500000 0.312500
vt 0.550000 0.312500
vt 0.548284 0.304853
vt 0.562500 0.312500
vt 0.591841 0.282659
vt 0.575000 0.312500
vt 0.626409 0.248091
vt 0.587500 0.312500
vt 0.648603 0.204534
vt 0.600000 0.312500
vt 0.612500 0.312500
vt 0.656250 0.156250
vn 0.000000 1.000000 0.000000
vn 0.000000 1.000000 0.000000
vn 0.000000 1.000000 0.000000
vn 0.000000 1.000000 0.000000
vn 0.000000 1.000000 0.000000
vn 0.000000 1.000000 0.000000
vn 0.000000 1.000000 0.000000
vn 0.000000 1.000000 0.000000
vn 0.000000 1.000000 0.000000
vn 0.000000 1.000000 0.000000
vn 0.000000 1.000000 0.000000
vn 0.000000 1.000000 -0.000000
vn 0.000000 1.000000 -0.000000
vn 0.000000 1.000000 -0.000000
vn 0.000000 1.000000 0.000000
vn 0.000000 1.000000 0.000000
vn 0.000000 1.000000 0.000000
vn 0.000000 1.000000 0.000000
vn 0.000000 1.000000 0.000000
vn 0.000000 1.000000 0.000000
vn 0.000000 1.000000 0.000000
vn 0.000000 1.000000 0.000000
vn 0.000000 1.000000 0.000000
vn 0.000000 1.000000 0.000000
vn 0.000000 1.000000 0.000000
vn 0.000000 1.000000 0.000000
vn 0.000000 1.000000 0.000000
vn 0.000000 1.000000 0.000000
vn 0.000000 1.000000 0.000000
vn 0.000000 1.000000 -0.000000
vn 0.000000 1.000000 -0.000000
vn 0.000000 1.000000 -0.000000
vn 0.000000 1.000000 0.000000
vn 0.000000 1.000000 0.000000
vn 0.000000 1.000000 -0.000000
vn 0.000000 1.000000 -0.000000
vn 0.000000 1.000000 -0.000000
vn 0.000000 1.000000 -0.000000
vn 0.000000 1.000000 0.000000
vn 0.000000 1.000000 0.000000
vn 0.000000 -1.000000 0.000000
vn 0.000000 -1.000000 0.000000
vn 0.000000 -1.000000 0.000000
vn 0.000000 -1.000000 0.000000
vn 0.000000 -1.000000 0.000000
vn 0.000000 -1.000000 -0.000000
vn 0.000000 -1.000000 -0.000000
vn 0.000000 -1.000000 0.000000
vn 0.000000 -1.000000 -0.000000
vn 0.000000 -1.000000 -0.000000
vn 0.000000 -1.000000 0.000000
vn 0.000000 -1.000000 0.000000
vn 0.000000 -1.000000 0.000000
vn 0.000000 -1.000000 0.000000
vn 0.000000 -1.000000 0.000000
vn 0.000000 -1.000000 -0.000000
vn 0.000000 -1.000000 0.000000
vn 0.000000 -1.000000 0.000000
vn 0.000000 -1.000000 0.000000
vn 0.000000 -1.000000 0.000000
vn 0.000000 -1.000000 0.000000
vn 0.000000 1.000000 -0.000000
vn -0.625434 0.780277 0.000000
vn -0.712952 0.701213 0.000000
vn -0.678058 0.701213 -0.220315
vn -0.594823 0.780277 -0.193270
vn -0.505987 0.780277 -0.367621
vn -0.576790 0.701213 -0.419062
vn -0.367621 0.780277 -0.505987
vn -0.419063 0.701213 -0.576790
vn -0.193270 0.780277 -0.594823
vn -0.220315 0.701213 -0.678057
vn -0.000000 0.780277 -0.625434
vn -0.000000 0.701213 -0.712952
vn 0.193270 0.780277 -0.594823
vn 0.220315 0.701213 -0.678057
vn 0.367621 0.780277 -0.505987
vn 0.419062 0.701213 -0.576790
vn 0.505987 0.780277 -0.367621
vn 0.576790 0.701213 -0.419062
vn 0.594823 0.780277 -0.193269
vn 0.678057 0.701213 -0.220314
vn 0.625434 0.780277 0.000001
vn 0.712952 0.701213 0.000001
vn 0.594823 0.780277 0.193270
vn 0.678058 0.701213 0.220315
vn 0.505987 0.780277 0.367621
vn 0.576790 0.701213 0.419063
vn 0.367621 0.780277 0.505987
vn 0.419063 0.701213 0.576790
vn 0.193270 0.780277 0.594823
vn 0.220315 0.701213 0.678057
vn 0.000000 0.780277 0.625434
vn -0.000000 0.701213 0.712952
vn -0.193270 0.780277 0.594823
vn -0.220315 0.701213 0.678057
vn -0.367621 0.780277 0.505987
vn -0.419062 0.701213 0.576790
vn -0.505987 0.780277 0.367621
vn -0.576790 0.701213 0.419062
vn -0.594823 0.780277 0.193270
vn -0.678058 0.701213 0.220315
vn 0.810447 0.585812 0.000001
vn 0.770781 0.585811 0.250443
vn 0.655666 0.585812 0.476369
vn 0.476369 0.585812 0.655666
vn 0.250443 0.585811 0.770781
vn -0.000000 0.585812 0.810447
vn -0.250443 0.585811 0.770781
vn -0.476369 0.585811 0.655666
vn -0.655666 0.585812 0.476369
vn -0.770781 0.585811 0.250443
vn -0.810447 0.585811 -0.000000
vn -0.770781 0.585811 -0.250443
vn -0.655666 0.585812 -0.476369
vn -0.476369 0.585811 -0.655666
vn -0.250443 0.585811 -0.770781
vn -0.000000 0.585812 -0.810447
vn 0.250443 0.585811 -0.770781
vn 0.476369 0.585812 -0.655666
vn 0.655666 0.585812 -0.476369
vn 0.770781 0.585812 -0.250442
vn 0.000000 -1.000000 0.000000
vn 0.000000 -1.000000 0.000000
vn 0.000000 -1.000000 0.000000
vn 0.000000 -1.000000 0.000000
vn 0.000000 -1.000000 -0.000000
vn 0.000000 -1.000000 -0.000000
vn 0.000000 -1.000000 0.000000
vn 0.000000 -1.000000 -0.000000
vn 0.000000 -1.000000 -0.000000
vn 0.000000 -1.000000 0.000000
vn 0.000000 -1.000000 0.000000
vn 0.000000 -1.000000 0.000000
vn 0.000000 -1.000000 0.000000
vn 0.000000 -1.000000 0.000000
vn 0.000000 -1.000000 -0.000000
vn 0.000000 -1.000000 0.000000
vn 0.000000 -1.000000 0.000000
vn 0.000000 -1.000000 0.000000
vn 0.000000 -1.000000 0.000000
vn 0.000000 -1.000000 0.000000
vn 0.480020 0.804954 -0.348755
vn 0.564297 0.804954 -0.183351
vn 0.348755 0.804954 -0.480020
vn 0.183351 0.804954 -0.564297
vn 0.000000 0.804954 -0.593338
vn -0.183351 0.804954 -0.564297
vn -0.348755 0.804954 -0.480020
vn -0.480020 0.804954 -0.348755
vn -0.564298 0.804954 -0.183351
vn -0.593337 0.804954 0.000000
vn -0.564297 0.804954 0.183351
vn -0.480020 0.804954 0.348755
vn -0.348755 0.804954 0.480020
vn -0.183351 0.804954 0.564297
vn 0.000000 0.804954 0.593337
vn 0.183351 0.804954 0.564297
vn 0.348755 0.804954 0.480020
vn 0.480020 0.804954 0.348755
vn 0.564298 0.804954 0.183352
vn 0.593338 0.804954 0.000001
vn 0.554538 -0.812418 -0.180181
vn 0.554538 -0.812418 -0.180181
vn 0.583077 -0.812417 0.000000
vn 0.583077 -0.812417 0.000000
vn 0.907217 0.300113 -0.294771
vn 0.907217 0.300113 -0.294771
vn 0.953902 0.300117 0.000001
vn 0.953902 0.300117 0.000001
vn 0.771725 0.300115 -0.560689
vn 0.771724 0.300115 -0.560689
vn 0.471717 -0.812418 -0.342723
vn 0.471717 -0.812418 -0.342723
vn 0.560690 0.300117 -0.771723
vn 0.560690 0.300117 -0.771723
vn 0.342723 -0.812417 -0.471720
vn 0.342723 -0.812417 -0.471720
vn 0.294772 0.300118 -0.907215
vn 0.294771 0.300118 -0.907215
vn 0.180180 -0.812417 -0.554540
vn 0.180180 -0.812417 -0.554540
vn 0.000000 0.300118 -0.953902
vn 0.000000 0.300118 -0.953902
vn -0.000000 -0.812419 -0.583074
vn -0.000000 -0.812419 -0.583074
vn -0.294772 0.300117 -0.907215
vn -0.294772 0.300117 -0.907215
vn -0.180180 -0.812417 -0.554539
vn -0.180180 -0.812417 -0.554539
vn -0.560691 0.300116 -0.771723
vn -0.560690 0.300116 -0.771723
vn -0.342722 -0.812418 -0.471718
vn -0.342722 -0.812418 -0.471718
vn -0.771724 0.300115 -0.560689
vn -0.771724 0.300115 -0.560689
vn -0.471715 -0.812420 -0.342722
vn -0.471716 -0.812420 -0.342722
vn -0.907215 0.300117 -0.294772
vn -0.907215 0.300117 -0.294772
vn -0.554538 -0.812418 -0.180182
vn -0.554538 -0.812418 -0.180182
vn -0.953901 0.300121 -0.000000
vn -0.953901 0.300121 -0.000000
vn -0.583077 -0.812417 -0.000000
vn -0.583077 -0.812417 -0.000000
vn -0.907215 0.300117 0.294772
vn -0.907215 0.300117 0.294772
vn -0.554539 -0.812417 0.180181
vn -0.554538 -0.812417 0.180182
vn -0.771723 0.300119 0.560689
vn -0.771723 0.300119 0.560689
vn -0.471718 -0.812418 0.342724
vn -0.471718 -0.812418 0.342724
vn -0.560689 0.300121 0.771722
vn -0.560689 0.300121 0.771722
vn -0.342724 -0.812416 0.471721
vn -0.342723 -0.812416 0.471721
vn -0.294772 0.300118 0.907215
vn -0.294772 0.300118 0.907215
vn -0.180180 -0.812416 0.554540
vn -0.180180 -0.812416 0.554540
vn 0.000000 0.300118 0.953902
vn 0.000000 0.300118 0.953902
vn 0.000000 -0.812420 0.583073
vn 0.000000 -0.812420 0.583073
vn 0.294772 0.300119 0.907214
vn 0.294771 0.300119 0.907215
vn 0.180179 -0.812418 0.554538
vn 0.180180 -0.812418 0.554538
vn 0.560689 0.300122 0.771722
vn 0.560689 0.300122 0.771722
vn 0.342722 -0.812418 0.471719
vn 0.342722 -0.812418 0.471719
vn 0.771722 0.300123 0.560688
vn 0.771722 0.300123 0.560688
vn 0.471718 -0.812418 0.342724
vn 0.471718 -0.812418 0.342724
vn 0.907214 0.300121 0.294771
vn 0.907214 0.300121 0.294771
vn 0.554539 -0.812416 0.180182
vn 0.554539 -0.812416 0.180183
s 1
g pCylinder1
usemtl lambert2SG
f 21/40/1 22/39/2 42/59/3 41/60/4
f 22/39/2 23/38/5 43/58/6 42/59/3
f 23/38/5 24/37/7 44/57/8 43/58/6
f 24/37/7 25/36/9 45/56/10 44/57/8
f 25/36/9 26/35/11 46/55/12 45/56/10
f 26/35/11 27/34/13 47/54/14 46/55/12
f 27/34/13 28/33/15 48/53/16 47/54/14
f 28/33/15 29/32/17 49/52/18 48/53/16
f 29/32/17 30/31/19 50/51/20 49/52/18
f 30/31/19 31/30/21 51/50/22 50/51/20
f 31/30/21 32/29/23 52/49/24 51/50/22
f 32/29/23 33/28/25 53/48/26 52/49/24
f 33/28/25 34/27/27 54/47/28 53/48/26
f 34/27/27 35/26/29 55/46/30 54/47/28
f 35/26/29 36/25/31 56/45/32 55/46/30
f 36/25/31 37/24/33 57/44/34 56/45/32
f 37/24/33 38/23/35 58/43/36 57/44/34
f 38/23/35 39/22/37 59/42/38 58/43/36
f 39/22/37 40/41/39 60/61/40 59/42/38
f 40/41/39 21/40/1 41/60/4 60/61/40
s 2
f 2/86/41 1/124/42 61/62/43
f 3/88/44 2/86/41 61/62/43
f 4/90/45 3/88/44 61/62/43
f 5/92/46 4/90/45 61/62/43
f 6/94/47 5/92/46 61/62/43
f 7/96/48 6/94/47 61/62/43
f 8/98/49 7/96/48 61/62/43
f 9/100/50 8/98/49 61/62/43
f 10/102/51 9/100/50 61/62/43
f 11/104/52 10/102/51 61/62/43
f 12/106/53 11/104/52 61/62/43
f 13/108/54 12/106/53 61/62/43
f 14/110/55 13/108/54 61/62/43
f 15/112/56 14/110/55 61/62/43
f 16/114/57 15/112/56 61/62/43
f 17/116/58 16/114/57 61/62/43
f 18/118/59 17/116/58 61/62/43
f 19/120/60 18/118/59 61/62/43
f 20/122/61 19/120/60 61/62/43
f 1/124/42 20/122/61 61/62/43
s 1
f 41/60/4 42/59/3 62/63/62
f 42/59/3 43/58/6 62/63/62
f 43/58/6 44/57/8 62/63/62
f 44/57/8 45/56/10 62/63/62
f 45/56/10 46/55/12 62/63/62
f 46/55/12 47/54/14 62/63/62
f 47/54/14 48/53/16 62/63/62
f 48/53/16 49/52/18 62/63/62
f 49/52/18 50/51/20 62/63/62
f 50/51/20 51/50/22 62/63/62
f 51/50/22 52/49/24 62/63/62
f 52/49/24 53/48/26 62/63/62
f 53/48/26 54/47/28 62/63/62
f 54/47/28 55/46/30 62/63/62
f 55/46/30 56/45/32 62/63/62
f 56/45/32 57/44/34 62/63/62
f 57/44/34 58/43/36 62/63/62
f 58/43/36 59/42/38 62/63/62
f 59/42/38 60/61/40 62/63/62
f 60/61/40 41/60/4 62/63/62
s 3
f 63/145/63 93/75/64 94/76/65 64/143/66
f 65/141/67 64/143/66 94/76/65 95/77/68
f 66/139/69 65/141/67 95/77/68 96/78/70
f 67/137/71 66/139/69 96/78/70 97/79/72
f 68/135/73 67/137/71 97/79/72 98/80/74
f 69/133/75 68/135/73 98/80/74 99/81/76
f 70/131/77 69/133/75 99/81/76 100/82/78
f 71/129/79 70/131/77 100/82/78 101/83/80
f 72/127/81 71/129/79 101/83/80 102/85/82
f 73/165/83 72/64/81 102/84/82 83/65/84
f 74/163/85 73/165/83 83/65/84 84/66/86
f 75/161/87 74/163/85 84/66/86 85/67/88
f 76/159/89 75/161/87 85/67/88 86/68/90
f 77/157/91 76/159/89 86/68/90 87/69/92
f 78/155/93 77/157/91 87/69/92 88/70/94
f 79/153/95 78/155/93 88/70/94 89/71/96
f 80/151/97 79/153/95 89/71/96 90/72/98
f 81/149/99 80/151/97 90/72/98 91/73/100
f 82/147/101 81/149/99 91/73/100 92/74/102
f 63/145/63 82/147/101 92/74/102 93/75/64
f 84/66/86 83/65/84 40/20/103 39/19/104
f 85/67/88 84/66/86 39/19/104 38/18/105
f 86/68/90 85/67/88 38/18/105 37/17/106
f 87/69/92 86/68/90 37/17/106 36/16/107
f 88/70/94 87/69/92 36/16/107 35/15/108
f 89/71/96 88/70/94 35/15/108 34/14/109
f 90/72/98 89/71/96 34/14/109 33/13/110
f 91/73/100 90/72/98 33/13/110 32/12/111
f 92/74/102 91/73/100 32/12/111 31/11/112
f 93/75/64 92/74/102 31/11/112 30/10/113
f 94/76/65 93/75/64 30/10/113 29/9/114
f 95/77/68 94/76/65 29/9/114 28/8/115
f 96/78/70 95/77/68 28/8/115 27/7/116
f 97/79/72 96/78/70 27/7/116 26/6/117
f 98/80/74 97/79/72 26/6/117 25/5/118
f 99/81/76 98/80/74 25/5/118 24/4/119
f 100/82/78 99/81/76 24/4/119 23/3/120
f 101/83/80 100/82/78 23/3/120 22/2/121
f 102/85/82 101/83/80 22/2/121 21/1/122
f 83/65/84 102/84/82 21/21/122 40/20/103
s 2
f 1/124/42 2/86/41 106/89/123 103/87/124
f 2/86/41 3/88/44 109/91/125 106/89/123
f 3/88/44 4/90/45 112/93/126 109/91/125
f 4/90/45 5/92/46 115/95/127 112/93/126
f 5/92/46 6/94/47 118/97/128 115/95/127
f 6/94/47 7/96/48 121/99/129 118/97/128
f 7/96/48 8/98/49 124/101/130 121/99/129
f 8/98/49 9/100/50 127/103/131 124/101/130
f 9/100/50 10/102/51 130/105/132 127/103/131
f 10/102/51 11/104/52 133/107/133 130/105/132
f 11/104/52 12/106/53 136/109/134 133/107/133
f 12/106/53 13/108/54 139/111/135 136/109/134
f 13/108/54 14/110/55 142/113/136 139/111/135
f 14/110/55 15/112/56 145/115/137 142/113/136
f 15/112/56 16/114/57 148/117/138 145/115/137
f 16/114/57 17/116/58 151/119/139 148/117/138
f 17/116/58 18/118/59 154/121/140 151/119/139
f 18/118/59 19/120/60 157/123/141 154/121/140
f 19/120/60 20/122/61 160/125/142 157/123/141
f 20/122/61 1/124/42 103/87/124 160/125/142
s 3
f 108/126/143 71/129/79 72/127/81 105/166/144
f 111/128/145 70/131/77 71/129/79 108/126/143
f 114/130/146 69/133/75 70/131/77 111/128/145
f 117/132/147 68/135/73 69/133/75 114/130/146
f 120/134/148 67/137/71 68/135/73 117/132/147
f 123/136/149 66/139/69 67/137/71 120/134/148
f 126/138/150 65/141/67 66/139/69 123/136/149
f 129/140/151 64/143/66 65/141/67 126/138/150
f 132/142/152 63/145/63 64/143/66 129/140/151
f 135/144/153 82/147/101 63/145/63 132/142/152
f 138/146/154 81/149/99 82/147/101 135/144/153
f 141/148/155 80/151/97 81/149/99 138/146/154
f 144/150/156 79/153/95 80/151/97 141/148/155
f 147/152/157 78/155/93 79/153/95 144/150/156
f 150/154/158 77/157/91 78/155/93 147/152/157
f 153/156/159 76/159/89 77/157/91 150/154/158
f 156/158/160 75/161/87 76/159/89 153/156/159
f 159/160/161 74/163/85 75/161/87 156/158/160
f 162/162/162 73/165/83 74/163/85 159/160/161
f 105/164/144 72/64/81 73/165/83 162/162/162
s 4
f 103/87/163 104/167/164 161/207/165 160/125/166
s 5
f 104/169/167 105/164/168 162/162/169 161/206/170
f 105/166/168 104/168/167 107/171/171 108/126/172
s 4
f 104/167/164 103/87/163 106/89/173 107/170/174
s 5
f 108/126/172 107/171/171 110/173/175 111/128/176
s 4
f 107/170/174 106/89/173 109/91/177 110/172/178
s 5
f 111/128/176 110/173/175 113/175/179 114/130/180
s 4
f 110/172/178 109/91/177 112/93/181 113/174/182
s 5
f 114/130/180 113/175/179 116/177/183 117/132/184
s 4
f 113/174/182 112/93/181 115/95/185 116/176/186
s 5
f 117/132/184 116/177/183 119/179/187 120/134/188
s 4
f 116/176/186 115/95/185 118/97/189 119/178/190
s 5
f 120/134/188 119/179/187 122/181/191 123/136/192
s 4
f 119/178/190 118/97/189 121/99/193 122/180/194
s 5
f 123/136/192 122/181/191 125/183/195 126/138/196
s 4
f 122/180/194 121/99/193 124/101/197 125/182/198
s 5
f 126/138/196 125/183/195 128/185/199 129/140/200
s 4
f 125/182/198 124/101/197 127/103/201 128/184/202
s 5
f 129/140/200 128/185/199 131/187/203 132/142/204
s 4
f 128/184/202 127/103/201 130/105/205 131/186/206
s 5
f 132/142/204 131/187/203 134/189/207 135/144/208
s 4
f 131/186/206 130/105/205 133/107/209 134/188/210
s 5
f 135/144/208 134/189/207 137/191/211 138/146/212
s 4
f 134/188/210 133/107/209 136/109/213 137/190/214
s 5
f 138/146/212 137/191/211 140/193/215 141/148/216
s 4
f 137/190/214 136/109/213 139/111/217 140/192/218
s 5
f 141/148/216 140/193/215 143/195/219 144/150/220
s 4
f 140/192/218 139/111/217 142/113/221 143/194/222
s 5
f 144/150/220 143/195/219 146/197/223 147/152/224
s 4
f 143/194/222 142/113/221 145/115/225 146/196/226
s 5
f 147/152/224 146/197/223 149/199/227 150/154/228
s 4
f 146/196/226 145/115/225 148/117/229 149/198/230
s 5
f 150/154/228 149/199/227 152/201/231 153/156/232
s 4
f 149/198/230 148/117/229 151/119/233 152/200/234
s 5
f 153/156/232 152/201/231 155/203/235 156/158/236
s 4
f 152/200/234 151/119/233 154/121/237 155/202/238
s 5
f 156/158/236 155/203/235 158/205/239 159/160/240
s 4
f 155/202/238 154/121/237 157/123/241 158/204/242
s 5
f 159/160/240 158/205/239 161/206/170 162/162/169
s 4
f 158/204/242 157/123/241 160/125/166 161/207/165
